{"title":"Les Réseaus de la    2014 HDTV 720p Legendado PT-BR","uid":15485301,"size":1308962581,"categoryP":"video","categoryS":"hd___tv_shows","magnet":"?xt=urn:btih:c770e5ee97f0845fff9a36fa8a76156d07379370&amp;dn=Les+R%26eacute%3Bseaus+de+la+H%40ine+2014+HDTV+720p+Legendado+PT-BR&amp;tr=udp%3A%2F%2Ftracker.leechers-paradise.org%3A6969&amp;tr=udp%3A%2F%2Fzer0day.ch%3A1337&amp;tr=udp%3A%2F%2Fopen.demonii.com%3A1337&amp;tr=udp%3A%2F%2Ftracker.coppersurfer.tk%3A6969&amp;tr=udp%3A%2F%2Fexodus.desync.com%3A6969","seeders":4,"leechers":0,"uploader":"xara_maior","files":1,"time":1470314121,"description":"Audio: French\r\nLegendas/subtitles: Português (hardsubed)\r\n\r\n============================================\r\nTrès présente sur les réseaux sociaux, la journaliste Rokhaya Diallo a été ciblée par un appel au viol publiquement lancé sur Twitter. Frappée par cette violence, elle décide de porter plainte et de partir à la rencontre de celles et ceux qui sont quotidiennement confrontés à la haine sur Internet.\r\n\r\nQu’il s’agisse de personnalités publiques comme Audrey Pulvar et Christine Boutin, ou d’anonymes harcelés par des centaines de messages, le documentaire tente de comprendre les leviers de la violence qui s’exprime parfois sur les réseaux sociaux. Cette enquête mène Rokhaya Diallo auprès d’associations de lutte contre les discriminations, de la Police mais aussi de défenseurs de la liberté d’expression pour répondre à une interrogation : Internet est-il un vecteur de haine ?\r\n\r\n=============================================\r\nMuito ativa nas redes sociais, a jornalista Rokhaya Diallo foi alvo de uma convocação de estupro lançada publicamente no Twitter. Atingida pela violência, ela decidiu revidar e ir ao encontro daqueles que diariamente pregam o ódio na internet.\r\n\r\nFiguras públicas como Audrey Pulvar e Christine Boutin, ou anônimos, são assediados por centenas de mensagens diariamente. O documentário tenta compreender as alavancas da violência que se expressam nas redes sociais e levando Rokhaya a transitar por associações de luta contra a discriminação, a polícia e defensores da liberdade de expressão para responder à pergunta: a internet é um transmissor do ódio?\r\n==============================================\r\n\r\nVideo\r\nID                             : 1\r\nFormat                         : AVC\r\nFormat/Info                    : Advanced Video Codec\r\nFormat profile                 :   \r\nFormat settings, CABAC         : Yes\r\nFormat settings, ReFrames      : 4 frames\r\nCodec ID                       : V_MPEG4/ISO/AVC\r\nDuration                       : 51mn 32s\r\nBit rate                       : 2 999 Kbps\r\nWidth                          : 1 280 pixels\r\nHeight                         : 720 pixels\r\nDisplay aspect ratio           : 16:9\r\nFrame rate mode                : Constant\r\nFrame rate                     : 59.880 fps\r\nOriginal frame rate            : 59.940 fps\r\nColor space                    : YUV\r\nChroma subsampling             : 4:2:0\r\nBit depth                      : 8 bits\r\nScan type                      : Progressive\r\nBits/(Pixel*Frame)             : 0.054\r\nStream size                    : 1.06 GiB (87%)\r\n\r\nAudio\r\nID                             : 2\r\nFormat                         : AC-3\r\nFormat/Info                    : Audio Coding 3\r\nMode extension                 : CM (complete main)\r\nFormat settings, Endianness    : Big\r\nCodec ID                       : A_AC3\r\nDuration                       : 51mn 32s\r\nBit rate mode                  : Constant\r\nBit rate                       : 384 Kbps\r\nChannel(s)                     : 2 channels\r\nChannel positions              : Front: L R\r\nSampling rate                  : 48.0 KHz\r\nBit depth                      : 16 bits\r\nCompression mode               : Lossy\r\nDelay relative to video        : 22ms\r\nStream size                    : 142 MiB (11%)\r\nLanguage                       : English\r\nDefault                        : Yes\r\nForced                         : No","torrent":{"xt":"urn:btih:c770e5ee97f0845fff9a36fa8a76156d07379370","amp;dn":"Les+R%26eacute%3Bseaus+de+la+H%40ine+2014+HDTV+720p+Legendado+PT-BR","amp;tr":["udp%3A%2F%2Ftracker.leechers-paradise.org%3A6969","udp%3A%2F%2Fzer0day.ch%3A1337","udp%3A%2F%2Fopen.demonii.com%3A1337","udp%3A%2F%2Ftracker.coppersurfer.tk%3A6969","udp%3A%2F%2Fexodus.desync.com%3A6969"],"infoHash":"c770e5ee97f0845fff9a36fa8a76156d07379370","infoHashBuffer":{"type":"Buffer","data":[199,112,229,238,151,240,132,95,255,154,54,250,138,118,21,109,7,55,147,112]},"announce":[],"urlList":[]}}